<svg width="17" height="19" viewBox="0 0 17 19" fill="none" xmlns="http://www.w3.org/2000/svg">
<path d="M6.72222 17.0555H10.2778C10.2778 18.0333 9.47778 18.8333 8.5 18.8333C7.52222 18.8333 6.72222 18.0333 6.72222 17.0555ZM16.5 15.2778V16.1667H0.5V15.2778L2.27778 13.5V8.16666C2.27778 5.4111 4.05556 3.0111 6.72222 2.2111V1.94443C6.72222 0.966657 7.52222 0.166656 8.5 0.166656C9.47778 0.166656 10.2778 0.966657 10.2778 1.94443V2.2111C12.9444 3.0111 14.7222 5.4111 14.7222 8.16666V13.5L16.5 15.2778ZM12.9444 8.16666C12.9444 5.67777 10.9889 3.72221 8.5 3.72221C6.01111 3.72221 4.05556 5.67777 4.05556 8.16666V14.3889H12.9444V8.16666Z" fill="white"/>
</svg>
