<svg width="50" height="50" viewBox="0 0 50 50" fill="none" xmlns="http://www.w3.org/2000/svg">
<rect width="50" height="50" rx="25" fill="white"/>
<g clip-path="url(#clip0_358_543)">
<path d="M41.5829 24.8274C41.5829 23.3935 41.4665 22.3471 41.2147 21.262H24.8406V27.734H34.4518C34.2581 29.3424 33.2117 31.7646 30.8864 33.3923L30.8538 33.6089L36.031 37.6197L36.3896 37.6555C39.6838 34.6131 41.5829 30.1369 41.5829 24.8274Z" fill="#4285F4"/>
<path d="M24.8407 41.8797C29.5494 41.8797 33.5024 40.3295 36.3897 37.6554L30.8864 33.3922C29.4138 34.4193 27.4372 35.1362 24.8407 35.1362C20.2288 35.1362 16.3146 32.094 14.9192 27.8891L14.7147 27.9065L9.33139 32.0727L9.26099 32.2684C12.1288 37.9654 18.0197 41.8797 24.8407 41.8797Z" fill="#34A853"/>
<path d="M14.9193 27.8891C14.5512 26.804 14.3381 25.6413 14.3381 24.4399C14.3381 23.2384 14.5512 22.0758 14.9 20.9907L14.8902 20.7596L9.43943 16.5264L9.26109 16.6113C8.0791 18.9754 7.40088 21.6302 7.40088 24.4399C7.40088 27.2497 8.0791 29.9043 9.26109 32.2684L14.9193 27.8891Z" fill="#FBBC05"/>
<path d="M24.8407 13.7434C28.1154 13.7434 30.3244 15.1579 31.584 16.3401L36.5059 11.5344C33.4831 8.72462 29.5494 7 24.8407 7C18.0197 7 12.1288 10.9143 9.26099 16.6112L14.8999 20.9906C16.3146 16.7857 20.2288 13.7434 24.8407 13.7434Z" fill="#EB4335"/>
</g>
<defs>
<clipPath id="clip0_358_543">
<rect width="35" height="35" fill="white" transform="translate(7 7)"/>
</clipPath>
</defs>
</svg>
