<svg width="16" height="17" viewBox="0 0 16 17" fill="none" xmlns="http://www.w3.org/2000/svg">
<path d="M12.4444 7.61111C11.5015 7.61111 10.5971 7.23651 9.93029 6.56971C9.26349 5.90292 8.88889 4.99855 8.88889 4.05556C8.88889 3.11256 9.26349 2.20819 9.93029 1.5414C10.5971 0.874602 11.5015 0.5 12.4444 0.5C13.3874 0.5 14.2918 0.874602 14.9586 1.5414C15.6254 2.20819 16 3.11256 16 4.05556C16 4.99855 15.6254 5.90292 14.9586 6.56971C14.2918 7.23651 13.3874 7.61111 12.4444 7.61111ZM1.77778 2.27778H7.11111V4.05556H1.77778V14.7222H12.4444V9.38889H14.2222V14.7222C14.2222 15.1937 14.0349 15.6459 13.7015 15.9793C13.3681 16.3127 12.9159 16.5 12.4444 16.5H1.77778C1.30628 16.5 0.854097 16.3127 0.520699 15.9793C0.187301 15.6459 0 15.1937 0 14.7222V4.05556C0 3.58406 0.187301 3.13187 0.520699 2.79848C0.854097 2.46508 1.30628 2.27778 1.77778 2.27778Z" fill="white"/>
</svg>
