<svg width="16" height="19" viewBox="0 0 16 19" fill="none" xmlns="http://www.w3.org/2000/svg">
<path d="M6.22222 17.0555H9.77778C9.77778 18.0333 8.97778 18.8333 8 18.8333C7.02222 18.8333 6.22222 18.0333 6.22222 17.0555ZM16 15.2778V16.1667H0V15.2778L1.77778 13.5V8.16666C1.77778 5.4111 3.55556 3.0111 6.22222 2.2111V1.94443C6.22222 0.966657 7.02222 0.166656 8 0.166656C8.97778 0.166656 9.77778 0.966657 9.77778 1.94443V2.2111C12.4444 3.0111 14.2222 5.4111 14.2222 8.16666V13.5L16 15.2778ZM12.4444 8.16666C12.4444 5.67777 10.4889 3.72221 8 3.72221C5.51111 3.72221 3.55556 5.67777 3.55556 8.16666V14.3889H12.4444V8.16666Z" fill="white"/>
</svg>
