<svg width="16" height="16" viewBox="0 0 16 16" fill="none" xmlns="http://www.w3.org/2000/svg">
<g clip-path="url(#clip0_405_309)">
<path d="M10.64 11.76L11.76 10.64L8.8 7.68V4H7.2V8.32L10.64 11.76ZM8 16C6.89333 16 5.85333 15.7899 4.88 15.3696C3.90667 14.9493 3.06 14.3795 2.34 13.66C1.62 12.9405 1.05013 12.0939 0.630401 11.12C0.210668 10.1461 0.000534346 9.10613 1.01266e-06 8C-0.00053232 6.89386 0.209601 5.85387 0.630401 4.88C1.0512 3.90613 1.62107 3.05947 2.34 2.34C3.05893 1.62053 3.9056 1.05067 4.88 0.6304C5.8544 0.210133 6.8944 0 8 0C9.10559 0 10.1456 0.210133 11.12 0.6304C12.0944 1.05067 12.9411 1.62053 13.66 2.34C14.3789 3.05947 14.9491 3.90613 15.3704 4.88C15.7917 5.85387 16.0016 6.89386 16 8C15.9984 9.10613 15.7883 10.1461 15.3696 11.12C14.9509 12.0939 14.3811 12.9405 13.66 13.66C12.9389 14.3795 12.0923 14.9496 11.12 15.3704C10.1477 15.7912 9.10773 16.0011 8 16ZM8 14.4C9.77333 14.4 11.2835 13.7768 12.5304 12.5304C13.7773 11.284 14.4005 9.77386 14.4 8C14.3995 6.22613 13.7763 4.716 12.5304 3.4696C11.2845 2.2232 9.77439 1.6 8 1.6C6.2256 1.6 4.71546 2.22347 3.4696 3.4704C2.22373 4.71733 1.60053 6.2272 1.6 8C1.59947 9.7728 2.22293 11.2829 3.4704 12.5304C4.71786 13.7779 6.22773 14.4011 8 14.4Z" fill="white"/>
</g>
<defs>
<clipPath id="clip0_405_309">
<rect width="16" height="16" fill="white"/>
</clipPath>
</defs>
</svg>
