<svg width="20" height="19" viewBox="0 0 20 19" fill="none" xmlns="http://www.w3.org/2000/svg">
<path d="M7.52508 18.5L7.16508 15.62C6.97008 15.545 6.78648 15.455 6.61428 15.35C6.44208 15.245 6.27318 15.1325 6.10758 15.0125L3.43008 16.1375L0.955078 11.8625L3.27258 10.1075C3.25758 10.0025 3.25008 9.9014 3.25008 9.8042V9.1967C3.25008 9.0989 3.25758 8.9975 3.27258 8.8925L0.955078 7.1375L3.43008 2.8625L6.10758 3.9875C6.27258 3.8675 6.44508 3.755 6.62508 3.65C6.80508 3.545 6.98508 3.455 7.16508 3.38L7.52508 0.5H12.4751L12.8351 3.38C13.0301 3.455 13.214 3.545 13.3868 3.65C13.5596 3.755 13.7282 3.8675 13.8926 3.9875L16.5701 2.8625L19.0451 7.1375L16.7276 8.8925C16.7426 8.9975 16.7501 9.0989 16.7501 9.1967V9.8033C16.7501 9.9011 16.7351 10.0025 16.7051 10.1075L19.0226 11.8625L16.5476 16.1375L13.8926 15.0125C13.7276 15.1325 13.5551 15.245 13.3751 15.35C13.1951 15.455 13.0151 15.545 12.8351 15.62L12.4751 18.5H7.52508ZM9.10008 16.7H10.8776L11.1926 14.315C11.6576 14.195 12.089 14.0189 12.4868 13.7867C12.8846 13.5545 13.2482 13.2731 13.5776 12.9425L15.8051 13.865L16.6826 12.335L14.7476 10.8725C14.8226 10.6625 14.8751 10.4414 14.9051 10.2092C14.9351 9.977 14.9501 9.7406 14.9501 9.5C14.9501 9.2594 14.9351 9.0233 14.9051 8.7917C14.8751 8.5601 14.8226 8.3387 14.7476 8.1275L16.6826 6.665L15.8051 5.135L13.5776 6.08C13.2476 5.735 12.884 5.4464 12.4868 5.2142C12.0896 4.982 11.6582 4.8056 11.1926 4.685L10.9001 2.3H9.12258L8.80758 4.685C8.34258 4.805 7.91148 4.9814 7.51428 5.2142C7.11708 5.447 6.75318 5.7281 6.42258 6.0575L4.19508 5.135L3.31758 6.665L5.25258 8.105C5.17758 8.33 5.12508 8.555 5.09508 8.78C5.06508 9.005 5.05008 9.245 5.05008 9.5C5.05008 9.74 5.06508 9.9725 5.09508 10.1975C5.12508 10.4225 5.17758 10.6475 5.25258 10.8725L3.31758 12.335L4.19508 13.865L6.42258 12.92C6.75258 13.265 7.11648 13.5539 7.51428 13.7867C7.91208 14.0195 8.34318 14.1956 8.80758 14.315L9.10008 16.7ZM10.0451 12.65C10.9151 12.65 11.6576 12.3425 12.2726 11.7275C12.8876 11.1125 13.1951 10.37 13.1951 9.5C13.1951 8.63 12.8876 7.8875 12.2726 7.2725C11.6576 6.6575 10.9151 6.35 10.0451 6.35C9.16008 6.35 8.41368 6.6575 7.80588 7.2725C7.19808 7.8875 6.89448 8.63 6.89508 9.5C6.89568 10.37 7.19958 11.1125 7.80678 11.7275C8.41398 12.3425 9.16008 12.65 10.0451 12.65Z" fill="white"/>
</svg>
